<svg height="512" viewBox="0 0 512 512" width="512" xmlns="http://www.w3.org/2000/svg">
<g id="sigil">
<line stroke="#000" stroke-width="2.000" x1="156.000" x2="156.000" y1="156.000" y2="356.000"/>
<line stroke="#000" stroke-width="2.000" x1="156.000" x2="356.000" y1="156.000" y2="156.000"/>
<line stroke="#000" stroke-width="2.000" x1="189.333" x2="189.333" y1="156.000" y2="356.000"/>
<line stroke="#000" stroke-width="2.000" x1="156.000" x2="356.000" y1="189.333" y2="189.333"/>
<line stroke="#000" stroke-width="2.000" x1="222.667" x2="222.667" y1="156.000" y2="356.000"/>
<line stroke="#000" stroke-width="2.000" x1="156.000" x2="356.000" y1="222.667" y2="222.667"/>
<line stroke="#000" stroke-width="2.000" x1="256.000" x2="256.000" y1="156.000" y2="356.000"/>
<line stroke="#000" stroke-width="2.000" x1="156.000" x2="356.000" y1="256.000" y2="256.000"/>
<line stroke="#000" stroke-width="2.000" x1="289.333" x2="289.333" y1="156.000" y2="356.000"/>
<line stroke="#000" stroke-width="2.000" x1="156.000" x2="356.000" y1="289.333" y2="289.333"/>
<line stroke="#000" stroke-width="2.000" x1="322.667" x2="322.667" y1="156.000" y2="356.000"/>
<line stroke="#000" stroke-width="2.000" x1="156.000" x2="356.000" y1="322.667" y2="322.667"/>
<line stroke="#000" stroke-width="2.000" x1="356.000" x2="356.000" y1="156.000" y2="356.000"/>
<line stroke="#000" stroke-width="2.000" x1="156.000" x2="356.000" y1="356.000" y2="356.000"/>
<circle cx="160.606" cy="239.144" fill="none" r="2.170" stroke="#000" stroke-width="0.500"/>
<circle cx="291.026" cy="325.239" fill="none" r="4.163" stroke="#000" stroke-width="0.500"/>
<circle cx="329.696" cy="190.675" fill="none" r="2.444" stroke="#000" stroke-width="0.500"/>
<circle cx="279.975" cy="317.930" fill="none" r="4.094" stroke="#000" stroke-width="0.500"/>
<circle cx="242.744" cy="331.933" fill="none" r="2.336" stroke="#000" stroke-width="0.500"/>
<circle cx="150.638" cy="199.862" fill="none" r="3.392" stroke="#000" stroke-width="0.500"/>
<circle cx="189.099" cy="293.691" fill="none" r="3.333" stroke="#000" stroke-width="0.500"/>
<circle cx="203.991" cy="230.343" fill="none" r="4.345" stroke="#000" stroke-width="0.500"/>
<circle cx="316.735" cy="175.057" fill="none" r="2.783" stroke="#000" stroke-width="0.500"/>
<circle cx="169.046" cy="312.471" fill="none" r="4.893" stroke="#000" stroke-width="0.500"/>
<circle cx="204.490" cy="326.960" fill="none" r="2.757" stroke="#000" stroke-width="0.500"/>
<circle cx="183.792" cy="179.823" fill="none" r="3.923" stroke="#000" stroke-width="0.500"/>
<circle cx="233.315" cy="175.399" fill="none" r="4.209" stroke="#000" stroke-width="0.500"/>
<circle cx="266.094" cy="218.234" fill="none" r="4.113" stroke="#000" stroke-width="0.500"/>
<circle cx="310.536" cy="359.534" fill="none" r="4.563" stroke="#000" stroke-width="0.500"/>
<circle cx="256.000" cy="256.000" fill="none" r="10.000" stroke="#000" stroke-width="3.000"/>
</g>
</svg>
