<svg height="512" viewBox="0 0 512 512" width="512" xmlns="http://www.w3.org/2000/svg">
<g id="sigil">
<circle cx="256.000" cy="256.000" fill="none" r="15.000" stroke="#000" stroke-width="3.000"/>
<line stroke="#000" stroke-width="1.500" x1="246.600" x2="219.975" y1="284.489" y2="285.185"/>
<line stroke="#000" stroke-width="1.500" x1="219.975" x2="193.650" y1="285.185" y2="262.867"/>
<line stroke="#000" stroke-width="1.500" x1="193.650" x2="185.183" y1="262.867" y2="220.781"/>
<line stroke="#000" stroke-width="1.500" x1="185.183" x2="207.080" y1="220.781" y2="174.034"/>
<line stroke="#000" stroke-width="1.500" x1="207.080" x2="259.701" y1="174.034" y2="144.243"/>
<line stroke="#000" stroke-width="1.500" x1="259.701" x2="328.831" y1="144.243" y2="150.519"/>
<line stroke="#000" stroke-width="1.500" x1="328.831" x2="389.399" y1="150.519" y2="200.338"/>
<line stroke="#000" stroke-width="1.500" x1="389.399" x2="414.426" y1="200.338" y2="284.159"/>
<line stroke="#000" stroke-width="1.500" x1="414.426" x2="386.058" y1="284.159" y2="376.460"/>
<line stroke="#000" stroke-width="1.500" x1="386.058" x2="304.374" y1="376.460" y2="443.497"/>
<line stroke="#000" stroke-width="1.500" x1="262.951" x2="228.488" y1="285.184" y2="300.714"/>
<line stroke="#000" stroke-width="1.500" x1="228.488" x2="183.041" y1="300.714" y2="273.377"/>
<line stroke="#000" stroke-width="1.500" x1="183.041" x2="172.960" y1="273.377" y2="204.906"/>
<line stroke="#000" stroke-width="1.500" x1="172.960" x2="228.197" y1="204.906" y2="139.265"/>
<line stroke="#000" stroke-width="1.500" x1="228.197" x2="330.675" y1="139.265" y2="134.633"/>
<line stroke="#000" stroke-width="1.500" x1="330.675" x2="416.510" y1="134.633" y2="217.771"/>
<line stroke="#000" stroke-width="1.500" x1="416.510" x2="415.693" y1="217.771" y2="354.257"/>
<line stroke="#000" stroke-width="1.500" x1="285.524" x2="299.224" y1="250.675" y2="276.873"/>
<line stroke="#000" stroke-width="1.500" x1="299.224" x2="287.213" y1="276.873" y2="314.153"/>
<line stroke="#000" stroke-width="1.500" x1="287.213" x2="244.635" y1="314.153" y2="339.228"/>
<line stroke="#000" stroke-width="1.500" x1="244.635" x2="185.433" y1="339.228" y2="329.649"/>
<line stroke="#000" stroke-width="1.500" x1="185.433" x2="137.906" y1="329.649" y2="277.300"/>
<line stroke="#000" stroke-width="1.500" x1="137.906" x2="131.731" y1="277.300" y2="195.991"/>
<line stroke="#000" stroke-width="1.500" x1="131.731" x2="182.224" y1="195.991" y2="118.548"/>
<line stroke="#000" stroke-width="1.500" x1="182.224" x2="279.542" y1="118.548" y2="83.600"/>
<line stroke="#000" stroke-width="1.500" x1="279.542" x2="388.833" y1="83.600" y2="117.366"/>
<line stroke="#000" stroke-width="1.500" x1="230.683" x2="236.533" y1="239.905" y2="213.921"/>
<line stroke="#000" stroke-width="1.500" x1="236.533" x2="264.622" y1="213.921" y2="193.868"/>
<line stroke="#000" stroke-width="1.500" x1="264.622" x2="307.500" y1="193.868" y2="195.974"/>
<line stroke="#000" stroke-width="1.500" x1="307.500" x2="347.455" y1="195.974" y2="228.658"/>
<line stroke="#000" stroke-width="1.500" x1="347.455" x2="363.442" y1="228.658" y2="286.976"/>
<line stroke="#000" stroke-width="1.500" x1="363.442" x2="340.416" y1="286.976" y2="352.460"/>
<line stroke="#000" stroke-width="1.500" x1="340.416" x2="277.273" y1="352.460" y2="398.971"/>
<line stroke="#000" stroke-width="1.500" x1="277.273" x2="189.875" y1="398.971" y2="402.694"/>
<line stroke="#000" stroke-width="1.500" x1="189.875" x2="107.341" y1="402.694" y2="352.572"/>
<line stroke="#000" stroke-width="1.500" x1="107.341" x2="62.366" y1="352.572" y2="256.950"/>
<circle cx="308.917" cy="267.052" fill="#000" r="4.000" stroke="#000" stroke-width="2.000"/>
<circle cx="112.167" cy="269.076" fill="#000" r="4.000" stroke="#000" stroke-width="2.000"/>
<circle cx="250.792" cy="185.087" fill="#000" r="4.000" stroke="#000" stroke-width="2.000"/>
<circle cx="326.348" cy="293.711" fill="#000" r="4.000" stroke="#000" stroke-width="2.000"/>
<circle cx="223.444" cy="213.916" fill="#000" r="4.000" stroke="#000" stroke-width="2.000"/>
<circle cx="449.471" cy="291.876" fill="#000" r="4.000" stroke="#000" stroke-width="2.000"/>
<circle cx="344.750" cy="407.224" fill="#000" r="4.000" stroke="#000" stroke-width="2.000"/>
<circle cx="411.144" cy="230.716" fill="#000" r="4.000" stroke="#000" stroke-width="2.000"/>
</g>
</svg>
