<svg height="512" viewBox="0 0 512 512" width="512" xmlns="http://www.w3.org/2000/svg">
<g id="sigil">
<circle cx="256.000" cy="256.000" fill="none" r="20.000" stroke="#000" stroke-width="3.000"/>
<path d="M 351.889 256.000 A 95.889 95.889 0 0 1 273.391 350.298" fill="none" stroke="#000" stroke-width="3.000"/>
<circle cx="351.889" cy="256.000" fill="#000" r="5.000" stroke="#000" stroke-width="2.000"/>
<circle cx="273.391" cy="350.298" fill="#000" r="5.000" stroke="#000" stroke-width="2.000"/>
<path d="M 303.944 339.042 A 95.889 95.889 0 0 1 199.377 333.385" fill="none" stroke="#000" stroke-width="3.000"/>
<circle cx="303.944" cy="339.042" fill="#000" r="5.000" stroke="#000" stroke-width="2.000"/>
<circle cx="199.377" cy="333.385" fill="#000" r="5.000" stroke="#000" stroke-width="2.000"/>
<path d="M 208.056 339.042 A 95.889 95.889 0 0 1 170.512 212.568" fill="none" stroke="#000" stroke-width="3.000"/>
<circle cx="208.056" cy="339.042" fill="#000" r="5.000" stroke="#000" stroke-width="2.000"/>
<circle cx="170.512" cy="212.568" fill="#000" r="5.000" stroke="#000" stroke-width="2.000"/>
<path d="M 160.111 256.000 A 95.889 95.889 0 0 1 220.663 166.860" fill="none" stroke="#000" stroke-width="3.000"/>
<circle cx="160.111" cy="256.000" fill="#000" r="5.000" stroke="#000" stroke-width="2.000"/>
<circle cx="220.663" cy="166.860" fill="#000" r="5.000" stroke="#000" stroke-width="2.000"/>
<path d="M 208.056 172.958 A 95.889 95.889 0 0 1 328.160 192.852" fill="none" stroke="#000" stroke-width="3.000"/>
<circle cx="208.056" cy="172.958" fill="#000" r="5.000" stroke="#000" stroke-width="2.000"/>
<circle cx="328.160" cy="192.852" fill="#000" r="5.000" stroke="#000" stroke-width="2.000"/>
<path d="M 303.944 172.958 A 95.889 95.889 0 0 1 340.533 301.263" fill="none" stroke="#000" stroke-width="3.000"/>
<circle cx="303.944" cy="172.958" fill="#000" r="5.000" stroke="#000" stroke-width="2.000"/>
<circle cx="340.533" cy="301.263" fill="#000" r="5.000" stroke="#000" stroke-width="2.000"/>
<line stroke="#000" stroke-width="1.500" x1="285.951" x2="315.902" y1="257.715" y2="259.430"/>
<line stroke="#000" stroke-width="1.500" x1="285.015" x2="314.030" y1="248.375" y2="240.750"/>
<line stroke="#000" stroke-width="1.500" x1="231.107" x2="206.214" y1="239.256" y2="222.513"/>
<line stroke="#000" stroke-width="1.500" x1="248.638" x2="241.276" y1="226.917" y2="197.835"/>
<line stroke="#000" stroke-width="1.500" x1="264.037" x2="272.075" y1="227.097" y2="198.193"/>
<line stroke="#000" stroke-width="1.500" x1="285.989" x2="315.978" y1="256.806" y2="257.613"/>
<line stroke="#000" stroke-width="1.500" x1="282.664" x2="309.329" y1="269.748" y2="283.496"/>
<line stroke="#000" stroke-width="1.500" x1="256.766" x2="257.532" y1="285.990" y2="315.980"/>
<line stroke="#000" stroke-width="1.500" x1="285.721" x2="315.442" y1="260.083" y2="264.166"/>
<line stroke="#000" stroke-width="1.500" x1="226.745" x2="197.491" y1="249.354" y2="242.708"/>
<line stroke="#000" stroke-width="1.500" x1="230.102" x2="204.204" y1="271.143" y2="286.286"/>
<line stroke="#000" stroke-width="1.500" x1="250.840" x2="245.681" y1="285.553" y2="315.106"/>
</g>
</svg>
