<svg height="512" viewBox="0 0 512 512" width="512" xmlns="http://www.w3.org/2000/svg">
<g id="sigil">
<circle cx="256.000" cy="256.000" fill="none" r="34.843" stroke="#000" stroke-width="3.000"/>
<line stroke="#000" stroke-width="2.000" x1="364.954" x2="364.954" y1="243.500" y2="268.500"/>
<line stroke="#000" stroke-width="2.000" x1="379.954" x2="379.954" y1="243.500" y2="268.500"/>
<line stroke="#000" stroke-width="2.000" x1="364.954" x2="379.954" y1="243.500" y2="243.500"/>
<line stroke="#000" stroke-width="2.000" x1="364.954" x2="379.954" y1="268.500" y2="268.500"/>
<line stroke="#000" stroke-width="2.000" x1="321.108" x2="321.108" y1="334.547" y2="359.547"/>
<line stroke="#000" stroke-width="2.000" x1="336.108" x2="336.108" y1="334.547" y2="359.547"/>
<line stroke="#000" stroke-width="2.000" x1="321.108" x2="336.108" y1="334.547" y2="334.547"/>
<line stroke="#000" stroke-width="2.000" x1="321.108" x2="336.108" y1="359.547" y2="359.547"/>
<line stroke="#000" stroke-width="2.000" x1="222.587" x2="222.587" y1="365.034" y2="382.034"/>
<line stroke="#000" stroke-width="2.000" x1="237.587" x2="237.587" y1="365.034" y2="382.034"/>
<line stroke="#000" stroke-width="2.000" x1="222.587" x2="237.587" y1="382.034" y2="382.034"/>
<line stroke="#000" stroke-width="2.000" x1="143.579" x2="143.579" y1="302.027" y2="319.027"/>
<line stroke="#000" stroke-width="2.000" x1="158.579" x2="158.579" y1="302.027" y2="319.027"/>
<line stroke="#000" stroke-width="2.000" x1="143.579" x2="158.579" y1="319.027" y2="319.027"/>
<line stroke="#000" stroke-width="2.000" x1="143.579" x2="143.579" y1="192.973" y2="217.973"/>
<line stroke="#000" stroke-width="2.000" x1="158.579" x2="158.579" y1="192.973" y2="217.973"/>
<line stroke="#000" stroke-width="2.000" x1="143.579" x2="158.579" y1="192.973" y2="192.973"/>
<line stroke="#000" stroke-width="2.000" x1="143.579" x2="158.579" y1="217.973" y2="217.973"/>
<line stroke="#000" stroke-width="2.000" x1="222.587" x2="222.587" y1="137.966" y2="154.966"/>
<line stroke="#000" stroke-width="2.000" x1="237.587" x2="237.587" y1="137.966" y2="154.966"/>
<line stroke="#000" stroke-width="2.000" x1="222.587" x2="237.587" y1="154.966" y2="154.966"/>
<line stroke="#000" stroke-width="2.000" x1="321.108" x2="321.108" y1="160.453" y2="177.453"/>
<line stroke="#000" stroke-width="2.000" x1="336.108" x2="336.108" y1="160.453" y2="177.453"/>
<line stroke="#000" stroke-width="2.000" x1="321.108" x2="336.108" y1="177.453" y2="177.453"/>
<line stroke="#000" stroke-width="1.000" x1="289.870" x2="417.326" y1="219.434" y2="81.833"/>
<line stroke="#000" stroke-width="1.000" x1="266.311" x2="302.678" y1="304.764" y2="476.754"/>
<line stroke="#000" stroke-width="1.000" x1="272.921" x2="330.463" y1="209.117" y2="49.682"/>
<line stroke="#000" stroke-width="1.000" x1="209.237" x2="57.508" y1="238.752" y2="182.788"/>
<line stroke="#000" stroke-width="1.000" x1="304.933" x2="478.779" y1="265.477" y2="299.147"/>
<line stroke="#000" stroke-width="1.000" x1="225.420" x2="108.801" y1="216.641" y2="66.542"/>
<line stroke="#000" stroke-width="1.000" x1="230.771" x2="148.290" y1="213.014" y2="72.482"/>
<line stroke="#000" stroke-width="1.000" x1="228.718" x2="137.863" y1="297.713" y2="436.624"/>
<line stroke="#000" stroke-width="1.000" x1="296.682" x2="449.499" y1="227.203" y2="119.032"/>
<line stroke="#000" stroke-width="1.000" x1="284.293" x2="385.963" y1="214.966" y2="67.511"/>
<line stroke="#000" stroke-width="1.000" x1="259.318" x2="269.412" y1="305.732" y2="457.019"/>
<line stroke="#000" stroke-width="1.000" x1="208.740" x2="64.664" y1="271.834" y2="320.106"/>
</g>
</svg>
