<svg height="512" viewBox="0 0 512 512" width="512" xmlns="http://www.w3.org/2000/svg">
<g id="sigil">
<circle cx="226.000" cy="226.000" fill="none" r="15.000" stroke="#888" stroke-width="2.000"/>
<circle cx="286.000" cy="286.000" fill="none" r="15.000" stroke="#000" stroke-width="3.000"/>
<line stroke="#000" stroke-width="2.500" x1="226.000" x2="286.000" y1="226.000" y2="286.000"/>
<line stroke="#000" stroke-width="2.500" x1="286.000" x2="274.587" y1="286.000" y2="282.292"/>
<line stroke="#000" stroke-width="2.500" x1="286.000" x2="282.292" y1="286.000" y2="274.587"/>
<circle cx="226.000" cy="226.000" fill="none" r="30.000" stroke="#888" stroke-width="0.800"/>
<circle cx="226.000" cy="226.000" fill="none" r="60.000" stroke="#888" stroke-width="0.800"/>
<circle cx="226.000" cy="226.000" fill="none" r="90.000" stroke="#888" stroke-width="0.800"/>
<circle cx="226.000" cy="226.000" fill="none" r="120.000" stroke="#888" stroke-width="0.800"/>
<line stroke="#000" stroke-width="1.500" x1="414.823" x2="430.823" y1="256.000" y2="256.000"/>
<line stroke="#000" stroke-width="1.500" x1="422.823" x2="422.823" y1="248.000" y2="264.000"/>
<line stroke="#000" stroke-width="1.500" x1="331.412" x2="347.412" y1="400.473" y2="400.473"/>
<line stroke="#000" stroke-width="1.500" x1="339.412" x2="339.412" y1="392.473" y2="408.473"/>
<line stroke="#000" stroke-width="1.500" x1="164.588" x2="180.588" y1="400.473" y2="400.473"/>
<line stroke="#000" stroke-width="1.500" x1="172.588" x2="172.588" y1="392.473" y2="408.473"/>
<line stroke="#000" stroke-width="1.500" x1="81.177" x2="97.177" y1="256.000" y2="256.000"/>
<line stroke="#000" stroke-width="1.500" x1="89.177" x2="89.177" y1="248.000" y2="264.000"/>
<line stroke="#000" stroke-width="1.500" x1="164.588" x2="180.588" y1="111.527" y2="111.527"/>
<line stroke="#000" stroke-width="1.500" x1="172.588" x2="172.588" y1="103.527" y2="119.527"/>
<line stroke="#000" stroke-width="1.500" x1="331.412" x2="347.412" y1="111.527" y2="111.527"/>
<line stroke="#000" stroke-width="1.500" x1="339.412" x2="339.412" y1="103.527" y2="119.527"/>
<line stroke="#000" stroke-width="1.000" x1="306.000" x2="306.048" y1="286.000" y2="296.215"/>
<line stroke="#000" stroke-width="1.000" x1="306.048" x2="300.695" y1="296.215" y2="306.225"/>
<line stroke="#000" stroke-width="1.000" x1="300.695" x2="290.302" y1="306.225" y2="313.161"/>
<line stroke="#000" stroke-width="1.000" x1="290.302" x2="276.729" y1="313.161" y2="314.532"/>
<line stroke="#000" stroke-width="1.000" x1="276.729" x2="263.019" y1="314.532" y2="308.981"/>
<line stroke="#000" stroke-width="1.000" x1="263.019" x2="252.713" y1="308.981" y2="296.816"/>
<line stroke="#000" stroke-width="1.000" x1="252.713" x2="248.962" y1="296.816" y2="280.134"/>
<line stroke="#000" stroke-width="1.000" x1="248.962" x2="253.639" y1="280.134" y2="262.489"/>
<line stroke="#000" stroke-width="1.000" x1="253.639" x2="266.705" y1="262.489" y2="248.132"/>
<line stroke="#000" stroke-width="1.000" x1="266.705" x2="286.000" y1="248.132" y2="241.000"/>
<line stroke="#000" stroke-width="1.000" x1="286.000" x2="307.565" y1="241.000" y2="243.677"/>
<line stroke="#000" stroke-width="1.000" x1="307.565" x2="326.451" y1="243.677" y2="256.611"/>
<line stroke="#000" stroke-width="1.000" x1="326.451" x2="337.854" y1="256.611" y2="277.787"/>
<line stroke="#000" stroke-width="1.000" x1="337.854" x2="338.308" y1="277.787" y2="302.996"/>
<line stroke="#000" stroke-width="1.000" x1="338.308" x2="326.659" y1="302.996" y2="326.659"/>
<line stroke="#000" stroke-width="1.000" x1="326.659" x2="304.541" y1="326.659" y2="343.063"/>
<line stroke="#000" stroke-width="1.000" x1="304.541" x2="276.223" y1="343.063" y2="347.731"/>
<line stroke="#000" stroke-width="1.000" x1="276.223" x2="247.794" y1="347.731" y2="338.586"/>
<line stroke="#000" stroke-width="1.000" x1="247.794" x2="225.857" y1="338.586" y2="316.644"/>
</g>
</svg>
