<svg xmlns="http://www.w3.org/2000/svg" width="512" height="512" viewBox="0 0 512 512">
<g id="sigil">
<circle cx="256.000" cy="256.000" r="194.259" stroke="#000" stroke-width="4" fill="none"/>
<circle cx="256.000" cy="256.000" r="72.156" stroke="#000" stroke-width="3" fill="none"/>
<circle cx="256.000" cy="256.000" r="6.000" stroke="#000" stroke-width="0" fill="#000"/>
<path d="M 328.156 256.000 L 327.431 270.300 L 323.873 284.311 L 317.570 297.470 L 308.718 309.242 L 297.622 319.133 L 284.680 326.717 L 270.369 331.651 L 255.232 333.692 L 239.854 332.707 L 224.837 328.682 L 210.783 321.721 L 198.265 312.049 L 187.804 300.000 L 179.850 286.011 L 174.758 270.601 L 172.781 254.356 L 174.046 237.902 L 178.560 221.887 L 186.196 206.951 L 196.705 193.702 L 209.719 182.689 L 224.763 174.383 L 241.276 169.156 L 258.631 167.264 L 276.155 168.832 L 293.159 173.853 L 308.965 182.183 L 322.931 193.544 L 334.479 207.534 L 343.115 223.642 L 348.456 241.263 L 350.242 259.726 L 348.350 278.316 L 342.800 296.302 L 333.759 312.966 L 321.531 327.633 L 306.552 339.695 L 289.374 348.642 L 270.641 354.076 L 251.070 355.733 L 231.418 353.496 L 212.460 347.399 L 194.951 337.628 L 179.599 324.519 L 167.039 308.540 L 157.803 290.283 L 152.298 270.435 L 150.790 249.756 L 153.393 229.049 L 160.058 209.128 L 170.575 190.786 L 184.582 174.766 L 201.571 161.727 L 220.915 152.221 L 241.881 146.666 L 263.666 145.331 L 285.423 148.321 L 306.299 155.572 L 325.460 166.854 L 342.132 181.771 L 355.631 199.783 L 365.386 220.219 L 370.969 242.306 L 372.111 265.196 L 368.713 287.999 L 360.854 309.818 L 348.792 329.785 L 332.949 347.093 L 313.904 361.033 L 292.369 371.016 L 269.158 376.606 L 245.166 377.532 L 221.324 373.705 L 198.571 365.221 L 177.811 352.360 L 159.884 335.578 L 145.523 315.491 L 135.332 292.848 L 129.757 268.513 L 129.068 243.419 L 133.345 218.545 L 142.474 194.868 L 156.150 173.330 L 173.885 154.801 L 195.026 140.037 L 218.780 129.660 L 244.243 124.122 L 270.435 123.692 L 296.335 128.439 L 320.925 138.232 L 343.227 152.740 L 362.342 171.440 L 377.488 193.645 L 388.031 218.517 L 393.510 245.109 L 393.660 272.397 L 388.421 299.316 L 377.945 324.808 L 362.590 347.859 L 342.910 367.542 L 319.633 383.051 L 293.637 393.739 L 265.914 399.138 L 237.535 398.986 L 209.604 393.235 L 183.221 382.057 L 159.435 365.838 L 139.202 345.165 L 123.349 320.807 L 112.538 293.682 L 107.241 264.828 L 107.717 235.359 L 114.000 206.424 L 125.898 179.162 L 142.997 154.656 L 164.675 133.890 L 190.125 117.714 L 218.383 106.801 L 248.368 101.628 L 278.923 102.449 L 308.854 109.285 L 336.984 121.922 L 362.195 139.917 L 383.475 162.612 L 399.955 189.161 L 410.948 218.557 L 415.975 249.675 L 414.788 281.310 L 407.379 312.229 L 393.985 341.215 L 375.079 367.116 L 351.354 388.892 L 323.697 405.656 L 293.158 416.707 L 260.908 421.567 L 228.196 419.992 L 196.298 411.990 L 166.469 397.821 L 139.894 377.988 L 117.640 353.221 L 100.613 324.448 L 89.524 292.763 L 84.854 259.382 L 86.838 225.598 L 95.453 192.728 L 110.415 162.069 L 131.190 134.835 L 157.011 112.122 L 186.907 94.853 L 219.742 83.748 L 254.254 79.289 L 289.106 81.704 L 322.936 90.953 L 354.414 106.725 L 382.290 128.457 L 405.444 155.342 L 422.934 186.370 L 434.034 220.358 L 438.259 256.000" stroke="#000" stroke-width="3" fill="none" stroke-linecap="round" stroke-linejoin="round"/>
</g>
</svg>
