<svg xmlns="http://www.w3.org/2000/svg" width="512" height="512" viewBox="0 0 512 512">
<g id="sigil">
<circle cx="256.000" cy="256.000" r="214.971" stroke="#000" stroke-width="4" fill="none"/>
<circle cx="256.000" cy="256.000" r="91.313" stroke="#000" stroke-width="3" fill="none"/>
<circle cx="256.000" cy="256.000" r="6.000" stroke="#000" stroke-width="0" fill="#000"/>
<line x1="357.421" y1="223.537" x2="310.687" y2="376.554" stroke="#000" stroke-width="3" stroke-linecap="round"/>
<line x1="345.219" y1="152.708" x2="411.023" y2="209.637" stroke="#000" stroke-width="3" stroke-linecap="round"/>
<line x1="315.981" y1="160.407" x2="310.762" y2="358.331" stroke="#000" stroke-width="3" stroke-linecap="round"/>
<line x1="426.551" y1="176.929" x2="341.616" y2="325.051" stroke="#000" stroke-width="3" stroke-linecap="round"/>
<line x1="91.392" y1="281.410" x2="312.407" y2="83.893" stroke="#000" stroke-width="3" stroke-linecap="round"/>
<line x1="298.034" y1="388.915" x2="147.458" y2="304.079" stroke="#000" stroke-width="3" stroke-linecap="round"/>
<line x1="286.558" y1="401.393" x2="150.360" y2="361.212" stroke="#000" stroke-width="3" stroke-linecap="round"/>
<line x1="171.668" y1="188.537" x2="296.230" y2="157.209" stroke="#000" stroke-width="3" stroke-linecap="round"/>
<line x1="280.320" y1="101.138" x2="358.844" y2="125.867" stroke="#000" stroke-width="3" stroke-linecap="round"/>
<line x1="124.920" y1="252.474" x2="125.127" y2="161.674" stroke="#000" stroke-width="3" stroke-linecap="round"/>
<line x1="374.042" y1="319.343" x2="252.019" y2="405.264" stroke="#000" stroke-width="3" stroke-linecap="round"/>
<line x1="212.738" y1="159.980" x2="378.912" y2="134.592" stroke="#000" stroke-width="3" stroke-linecap="round"/>
<line x1="288.354" y1="440.387" x2="134.324" y2="254.940" stroke="#000" stroke-width="3" stroke-linecap="round"/>
</g>
</svg>
