<svg xmlns="http://www.w3.org/2000/svg" width="512" height="512" viewBox="0 0 512 512">
<g id="sigil">
<circle cx="256.000" cy="256.000" r="202.493" stroke="#000" stroke-width="4" fill="none"/>
<circle cx="256.000" cy="256.000" r="83.668" stroke="#000" stroke-width="3" fill="none"/>
<circle cx="256.000" cy="256.000" r="6.000" stroke="#000" stroke-width="0" fill="#000"/>
<line x1="349.668" y1="256.000" x2="450.493" y2="256.000" stroke="#000" stroke-width="3" stroke-linecap="round"/>
<line x1="341.570" y1="294.098" x2="433.678" y2="335.107" stroke="#000" stroke-width="3" stroke-linecap="round"/>
<line x1="318.676" y1="325.609" x2="386.141" y2="400.536" stroke="#000" stroke-width="3" stroke-linecap="round"/>
<line x1="284.945" y1="345.084" x2="316.102" y2="440.973" stroke="#000" stroke-width="3" stroke-linecap="round"/>
<line x1="246.209" y1="349.155" x2="235.670" y2="449.427" stroke="#000" stroke-width="3" stroke-linecap="round"/>
<line x1="209.166" y1="337.119" x2="158.754" y2="424.435" stroke="#000" stroke-width="3" stroke-linecap="round"/>
<line x1="180.221" y1="311.057" x2="98.652" y2="370.320" stroke="#000" stroke-width="3" stroke-linecap="round"/>
<line x1="164.379" y1="275.475" x2="65.758" y2="296.437" stroke="#000" stroke-width="3" stroke-linecap="round"/>
<line x1="164.379" y1="236.525" x2="65.758" y2="215.563" stroke="#000" stroke-width="3" stroke-linecap="round"/>
<line x1="180.221" y1="200.943" x2="98.652" y2="141.680" stroke="#000" stroke-width="3" stroke-linecap="round"/>
<line x1="209.166" y1="174.881" x2="158.754" y2="87.565" stroke="#000" stroke-width="3" stroke-linecap="round"/>
<line x1="246.209" y1="162.845" x2="235.670" y2="62.573" stroke="#000" stroke-width="3" stroke-linecap="round"/>
<line x1="284.945" y1="166.916" x2="316.102" y2="71.027" stroke="#000" stroke-width="3" stroke-linecap="round"/>
<line x1="318.676" y1="186.391" x2="386.141" y2="111.464" stroke="#000" stroke-width="3" stroke-linecap="round"/>
<line x1="341.570" y1="217.902" x2="433.678" y2="176.893" stroke="#000" stroke-width="3" stroke-linecap="round"/>
</g>
</svg>
